<?xml version="1.0" standalone="no"?><!DOCTYPE svg PUBLIC "-//W3C//DTD SVG 1.1//EN" "http://www.w3.org/Graphics/SVG/1.1/DTD/svg11.dtd"><svg t="1575208168207" class="icon" viewBox="0 0 1024 1024" version="1.1" xmlns="http://www.w3.org/2000/svg" p-id="8307" xmlns:xlink="http://www.w3.org/1999/xlink" width="200" height="200"><defs><style type="text/css"></style></defs><path d="M892.426514 674.172367c74.389709-14.279944 131.569486-99.704611 131.569486-203.009207 0-113.209558-68.674732-204.999199-153.414401-205.134199C832.831747 113.649556 686.518318 0 511.568002 0 336.613685 0 190.291257 113.662556 152.559404 266.058961 68.209734 266.808958 0 358.3336 0 471.16316 0 584.457717 68.769731 676.307358 153.5994 676.307358c21.187917 0 41.372838-5.728978 59.734767-16.094937 47.894813-12.244952 51.1998-59.978766 51.1998-59.978766v-253.999007c0-41.909836-51.1998-64.11975-51.1998-64.11975-3.394987-1.914993-6.869973-3.614986-10.38496-5.20998 0.394998-1.559994 0.866997-3.089988 1.289995-4.639982C260.206984 167.139347 376.973527 94.80763 512 94.80763c135.022473 0 251.782016 72.324717 307.750798 177.437307 0.424998 1.559994 0.899996 3.094988 1.294995 4.659981-3.514986 1.589994-6.994973 3.294987-10.38996 5.20998-47.889813 12.249952-51.1998 59.979766-51.1998 59.979766v253.999008c0 41.909836 51.1998 64.11975 51.1998 64.119749 17.149933 9.679962 35.90486 15.25494 55.563783 15.954938-4.554982 25.834899-12.523951 51.364799-24.264905 76.019703-38.044851 79.925688-107.739579 135.324471-189.39426 160.194374-20.060922-32.559873-74.25471-55.898782-138.004461-55.898782-80.817684 0-146.332428 37.493854-146.332428 83.754673 0 46.259819 65.514744 83.759673 146.332428 83.759673 80.813684 0 146.328428-37.499854 146.328428-83.759673 0-1.209995-0.069-2.404991-0.158999-3.595986 87.993656-26.994895 163.188363-86.97466 204.339202-173.408322 13.736946-28.846887 22.671911-58.79177 27.361893-89.061652zM132.267483 621.657572C85.954664 606.907629 51.1998 545.142871 51.1998 471.16316s34.754864-135.73947 81.066683-150.489413V621.657572zM891.726517 320.673747c46.309819 14.749942 81.063683 76.509701 81.063683 150.489413 0 73.978711-34.754864 135.74447-81.063683 150.494412V320.673747z m-678.39235 25.559901v249.859024c-15.731939 17.015934-34.814864 27.390893-55.466784 28.674888V317.56376c20.651919 1.279995 39.734845 11.659954 55.466784 28.669888z m298.665833-277.068918c-91.044644 0-174.334319 30.79488-238.622068 81.79168C331.533705 89.879649 416.843372 51.2878 511.998 51.2878c95.145628 0 180.449295 38.586849 238.604068 99.65961C686.317319 99.95461 603.037644 69.16473 512 69.16473zM866.126617 624.76756c-20.654919-1.283995-39.739845-11.658954-55.469784-28.674888v-249.859024c15.728939-17.009934 34.813864-27.389893 55.469784-28.669888V624.76756zM514.55899 981.591166c-57.729774 0-104.522592-18.754927-104.522592-41.879837 0-23.12991 46.791817-41.879836 104.522592-41.879836 57.724775 0 104.519592 18.749927 104.519592 41.879836-0.001 23.12491-46.795817 41.879836-104.519592 41.879837z" fill="#e6e6e6" p-id="8308"></path></svg>